<?xml version="1.0" encoding="utf-8"?>
<!-- Generator: Adobe Illustrator 14.0.0, SVG Export Plug-In . SVG Version: 6.00 Build 43363)  -->
<!DOCTYPE svg PUBLIC "-//W3C//DTD SVG 1.1//EN" "http://www.w3.org/Graphics/SVG/1.1/DTD/svg11.dtd">
<svg version="1.1" id="Ebene_1"
	xmlns="http://www.w3.org/2000/svg"
	xmlns:xlink="http://www.w3.org/1999/xlink" x="0px" y="0px" width="65.707px" height="21.311px" viewBox="0 0 65.707 21.311" enable-background="new 0 0 65.707 21.311" xml:space="preserve" preserveAspectRatio="none">
	<g>
		<path fill="none" stroke="#FFFFFF" stroke-width="0.75" d="M0,13.944h11.123l0.378-0.631l0.393-0.619l0.437,0.757l0.468,0.104
		l0.833,0.798l0.351-2.933l0.201-2.481l0.172-3.02L14.448,4.5l0.059-1.515l0.51-1.543l0.473,2.27l0.193,1.274l0.17,4.235
		l0.185,3.646l0.043,1.995l0.212,2.88l0.334,1.382l0.243,0.796l0.483-1.895l0.141-1.228l0.111-1.431l0.035-1.886
		c0,0,0.211-1.558,0.486-1.182c0.282,0.384,0.902,1.485,0.902,1.485l0.342-1.469l0.486-1.644l0.48-1.106l0.667,1.086l0.529,2.779
		l0.805,0.506h43.368"/>
	</g>
</svg>
